# xmcd
#
# Track frame offsets: 
#        182
#        12865
#        26100
#        38785
#        51527
#        60435
#        72807
#        85897
#        98880
#        111965
#        122855
#        133620
#
# Disc length: 1937 seconds
#
# Revision: 2
# Processed by: cddbd v1.5.2PL0 Copyright (c) Steve Scherf et al.
# Submitted via: ExactAudioCopy v1.0b3
#
DISCID=a4078f0c
DTITLE=Hank Williams - I Saw The Light
DYEAR=1968
DGENRE=Country
TTITLE0=I Saw The Light
TTITLE1=Calling You
TTITLE2=Dear Brother
TTITLE3=Wealth Won't Save Your Soul
TTITLE4=I'm Gonna Sing
TTITLE5=Message To My Mother
TTITLE6=How Can You Refuse Him Now
TTITLE7=When God Comes And Gathers His Jewels
TTITLE8=Jesus Remembered Me
TTITLE9=A House Of Gold
TTITLE10=Thank God
TTITLE11=The Angel Of Death
EXTD=
EXTT0=
EXTT1=
EXTT2=
EXTT3=
EXTT4=
EXTT5=
EXTT6=
EXTT7=
EXTT8=
EXTT9=
EXTT10=
EXTT11=
PLAYORDER=
